200 0 1 0           
25 XPlus Application - 6.0.3 13 ACIS 6.0.3 NT 24 Fri Jan 17 08:44:42 2003 
1 9.9999999999999995e-007 1e-010 
body $-1 $1 $-1 $-1 #
lump $-1 $-1 $2 $0 #
shell $-1 $-1 $-1 $3 $-1 $1 #
face $-1 $4 $5 $2 $-1 $6 reversed single #
face $-1 $7 $8 $2 $-1 $9 reversed single #
loop $-1 $-1 $10 $3 #
plane-surface $-1 -3.8163916471489762e-014 3.7326001664506056e-014 0 0 0 1 1000 0 0 forward_v I I I I #
face $-1 $11 $12 $2 $-1 $13 reversed single #
loop $-1 $-1 $14 $4 #
plane-surface $-1 -1524 304.79999999999978 1524 1 0 0 0 0 -1000 forward_v I I I I #
coedge $-1 $15 $16 $17 $18 1 $5 $-1 #
face $-1 $19 $20 $2 $-1 $21 reversed single #
loop $-1 $-1 $22 $7 #
plane-surface $-1 -3.8163916471489762e-014 304.79999999999978 1524 0 -1 0 0 0 -1000 forward_v I I I I #
coedge $-1 $23 $24 $25 $26 1 $8 $-1 #
coedge $-1 $27 $10 $28 $29 1 $5 $-1 #
coedge $-1 $10 $27 $30 $31 1 $5 $-1 #
coedge $-1 $32 $33 $10 $18 0 $34 $-1 #
edge $-1 $35 $36 $17 $37 forward #
face $-1 $38 $34 $2 $-1 $39 reversed single #
loop $-1 $-1 $40 $11 #
plane-surface $-1 -3.8163916471489762e-014 3.7326001664506056e-014 1524 -1 0 0 0 0 1000 forward_v I I I I #
coedge $-1 $41 $42 $43 $44 1 $12 $-1 #
coedge $-1 $28 $14 $45 $46 0 $8 $-1 #
coedge $-1 $14 $28 $33 $47 1 $8 $-1 #
coedge $-1 $48 $49 $14 $26 0 $50 $-1 #
edge $-1 $51 $52 $25 $53 forward #
coedge $-1 $16 $15 $54 $55 1 $5 $-1 #
coedge $-1 $24 $23 $15 $29 0 $8 $-1 #
edge $-1 $56 $35 $28 $57 forward #
coedge $-1 $58 $59 $16 $31 0 $20 $-1 #
edge $-1 $36 $60 $30 $61 forward #
coedge $-1 $62 $17 $59 $63 1 $34 $-1 #
coedge $-1 $17 $64 $24 $47 0 $34 $-1 #
loop $-1 $-1 $64 $19 #
vertex $-1 $47 $65 #
vertex $-1 $63 $66 #
straight-curve $-1 -1524 3.7326001664506056e-014 0 1000 0 0 I I #
face $-1 $67 $68 $2 $-1 $69 forward single #
plane-surface $-1 -1524 3.7326001664506056e-014 1524 0 1 0 0 0 1000 forward_v I I I I #
coedge $-1 $59 $58 $70 $71 1 $20 $-1 #
coedge $-1 $54 $22 $58 $72 0 $12 $-1 #
coedge $-1 $22 $45 $49 $73 1 $12 $-1 #
coedge $-1 $74 $70 $22 $44 0 $75 $-1 #
edge $-1 $76 $77 $43 $78 reversed #
coedge $-1 $42 $54 $23 $46 1 $12 $-1 #
edge $-1 $51 $56 $23 $79 forward #
edge $-1 $52 $35 $33 $80 forward #
coedge $-1 $81 $25 $64 $82 0 $50 $-1 #
coedge $-1 $25 $83 $42 $73 0 $50 $-1 #
loop $-1 $-1 $84 $85 #
vertex $-1 $73 $86 #
vertex $-1 $47 $87 #
straight-curve $-1 -1524 3048.0000000000005 1018.546381949837 0 -999.99999999999989 0 I I #
coedge $-1 $45 $41 $27 $55 0 $12 $-1 #
edge $-1 $60 $56 $54 $88 forward #
vertex $-1 $46 $89 #
straight-curve $-1 -1524 304.79999999999978 0 0 -1000 0 I I #
coedge $-1 $40 $30 $41 $72 1 $20 $-1 #
coedge $-1 $30 $40 $32 $63 0 $20 $-1 #
vertex $-1 $72 $90 #
straight-curve $-1 -3.8163916471489762e-014 3.7326001664506056e-014 0 0 1000 0 I I #
coedge $-1 $64 $32 $91 $92 1 $34 $-1 #
edge $-1 $93 $36 $59 $94 forward #
coedge $-1 $33 $62 $48 $82 1 $34 $-1 #
point $-1 -1524 5.5511151231257827e-014 0 #
point $-1 -3.8163916471489762e-014 3.7326001664506056e-014 0 #
face $-1 $95 $96 $2 $-1 $97 forward single #
loop $-1 $-1 $98 $38 #
plane-surface $-1 -3.8163916471489756e-014 2133.6000000000004 0 0 0 -1 -1000 0 0 forward_v I I I I #
coedge $-1 $43 $91 $40 $71 0 $75 $-1 #
edge $-1 $93 $76 $70 $99 reversed #
edge $-1 $76 $60 $41 $100 forward #
edge $-1 $77 $51 $49 $101 reversed #
coedge $-1 $102 $43 $83 $103 1 $75 $-1 #
loop $-1 $-1 $104 $105 #
vertex $-1 $44 $106 #
vertex $-1 $103 $107 #
ellipse-curve $-1 -762 304.79999999999973 1524 0 -1 0 0 0 -914.40000000000009 1 I I #
straight-curve $-1 -1524 304.79999999999978 1524 0 0 -1000 I I #
straight-curve $-1 -1524 5.5511151231257827e-014 1524 0 0 -1000 I I #
coedge $-1 $108 $48 $109 $110 0 $50 $-1 #
edge $-1 $52 $111 $48 $112 reversed #
coedge $-1 $49 $113 $74 $103 0 $50 $-1 #
coedge $-1 $114 $108 $115 $116 1 $50 $-1 #
face $-1 $105 $50 $2 $-1 $117 forward single #
point $-1 -1524 304.79999999999978 1018.546381949837 #
point $-1 -1524 -4.4408920985006262e-013 1018.546381949837 #
straight-curve $-1 -3.8163916471489762e-014 304.79999999999978 0 -1000 0 0 I I #
point $-1 -1524 304.79999999999978 0 #
point $-1 -3.8163916471489762e-014 304.80000000000001 0 #
coedge $-1 $70 $109 $62 $92 0 $75 $-1 #
edge $-1 $111 $93 $91 $118 reversed #
vertex $-1 $92 $119 #
straight-curve $-1 -3.8163916471489762e-014 3.7326001664506056e-014 1524 0 0 -1000 I I #
face $-1 $120 $121 $2 $-1 $122 forward single #
loop $-1 $-1 $123 $67 #
plane-surface $-1 -1524 2438.4000000000001 1524 0 1 0 0 0 1000 forward_v I I I I #
coedge $-1 $124 $125 $126 $127 0 $68 $-1 #
straight-curve $-1 0 3048.0000000000005 1018.546381949837 0 -999.99999999999989 0 I I #
straight-curve $-1 -3.8163916471489762e-014 304.80000000000001 1524 0 0 -1000 I I #
ellipse-curve $-1 -762 304.79999999999973 1524 0 -1 0 0 0 -914.40000000000009 1 I I #
coedge $-1 $128 $74 $129 $130 1 $75 $-1 #
edge $-1 $131 $77 $83 $132 forward #
coedge $-1 $115 $133 $134 $135 1 $75 $-1 #
face $-1 $-1 $75 $2 $-1 $136 forward single #
point $-1 0 304.79999999999973 1018.5463819498368 #
point $-1 -762 304.79999999999973 609.59999999999991 #
coedge $-1 $84 $81 $137 $138 0 $50 $-1 #
coedge $-1 $91 $139 $81 $110 1 $75 $-1 #
edge $-1 $111 $140 $81 $141 forward #
vertex $-1 $110 $142 #
ellipse-curve $-1 -762 0 1524 0 1 0 0 0 914.40000000000009 1 I I #
coedge $-1 $83 $143 $144 $145 1 $50 $-1 #
coedge $-1 $146 $84 $147 $148 1 $50 $-1 #
coedge $-1 $139 $104 $84 $116 0 $75 $-1 #
edge $-1 $149 $150 $115 $151 forward #
cone-surface $-1 -762 3048.0000000000005 1524 0 1 0 0 0 -914.40000000000009 1 I I 0 1 forward I I I I #
ellipse-curve $-1 -762 0 1524 0 1 0 0 0 914.40000000000009 1 I I #
point $-1 -3.8163916471489762e-014 3.7326001664506056e-014 1018.546381949837 #
face $-1 $152 $153 $2 $-1 $154 forward single #
loop $-1 $-1 $155 $95 #
plane-surface $-1 -1524 2133.6000000000004 1524 -1 0 0 0 0 1000 forward_v I I I I #
coedge $-1 $156 $157 $158 $159 1 $96 $-1 #
coedge $-1 $160 $98 $161 $162 0 $68 $-1 #
coedge $-1 $98 $160 $157 $163 0 $68 $-1 #
coedge $-1 $164 $165 $98 $127 1 $166 $-1 #
edge $-1 $167 $168 $98 $169 forward #
coedge $-1 $170 $102 $171 $172 1 $75 $-1 #
coedge $-1 $144 $173 $102 $130 0 $153 $-1 #
edge $-1 $174 $131 $129 $175 reversed #
vertex $-1 $103 $176 #
straight-curve $-1 -762 3048.0000000000005 609.59999999999991 0 -999.99999999999989 0 I I #
coedge $-1 $104 $170 $146 $177 1 $75 $-1 #
coedge $-1 $147 $147 $104 $135 0 $178 $-1 #
edge $-1 $149 $179 $134 $180 forward #
cone-surface $-1 -762 3048.0000000000005 1524 0 1 0 0 0 -914.40000000000009 1 I I 0 1 forward I I I I #
coedge $-1 $181 $181 $108 $138 1 $182 $-1 #
edge $-1 $140 $150 $108 $183 forward #
coedge $-1 $109 $115 $181 $184 0 $75 $-1 #
vertex $-1 $184 $185 #
straight-curve $-1 -762 3048.0000000000005 609.59999999999991 0 -999.99999999999989 0 I I #
point $-1 -762 0 609.59999999999991 #
coedge $-1 $113 $186 $187 $188 1 $50 $-1 #
coedge $-1 $189 $129 $113 $145 0 $153 $-1 #
edge $-1 $131 $190 $144 $191 reversed #
coedge $-1 $186 $114 $133 $177 0 $50 $-1 #
coedge $-1 $134 $134 $114 $148 0 $178 $-1 #
edge $-1 $179 $149 $147 $192 forward #
vertex $-1 $116 $193 #
vertex $-1 $116 $194 #
straight-curve $-1 -761.99999999999989 3048.0000000000005 2438.4000000000001 0 -999.99999999999989 0 I I #
face $-1 $195 $166 $2 $-1 $196 forward single #
loop $-1 $-1 $173 $120 #
plane-surface $-1 -3.8163916471489756e-014 2133.6000000000004 1524 0 -1 0 0 0 -1000 forward_v I I I I #
coedge $-1 $187 $197 $189 $198 1 $121 $-1 #
coedge $-1 $199 $123 $186 $200 0 $96 $-1 #
coedge $-1 $123 $201 $125 $163 1 $96 $-1 #
coedge $-1 $197 $187 $123 $159 0 $121 $-1 #
edge $-1 $202 $203 $158 $204 forward #
coedge $-1 $125 $124 $197 $205 0 $68 $-1 #
coedge $-1 $173 $189 $124 $162 1 $153 $-1 #
edge $-1 $168 $206 $124 $207 forward #
edge $-1 $203 $167 $125 $208 forward #
coedge $-1 $171 $126 $201 $209 1 $166 $-1 #
coedge $-1 $126 $171 $173 $210 0 $166 $-1 #
loop $-1 $-1 $164 $152 #
vertex $-1 $209 $211 #
vertex $-1 $210 $212 #
straight-curve $-1 0 2438.4000000000001 0 -1.2520969970961215e-013 -1000 0 I I #
coedge $-1 $133 $128 $199 $213 1 $75 $-1 #
coedge $-1 $165 $164 $128 $172 0 $166 $-1 #
edge $-1 $214 $174 $171 $215 forward #
coedge $-1 $129 $161 $165 $210 1 $153 $-1 #
vertex $-1 $130 $216 #
ellipse-curve $-1 -762 2133.6000000000004 1524 0 -1 0 0 0 -914.40000000000009 1 I I #
point $-1 -762 2133.6000000000004 609.59999999999991 #
edge $-1 $179 $217 $146 $218 forward #
loop $-1 $-1 $147 $195 #
vertex $-1 $135 $219 #
ellipse-curve $-1 -762 3048.0000000000005 1524 0 1 0 -914.40000000000009 0 0 1 I I #
coedge $-1 $137 $137 $139 $184 1 $182 $-1 #
loop $-1 $-1 $137 $220 #
ellipse-curve $-1 -762 -609.60000000000002 1524 0 1 0 -914.40000000000009 0 0 1 I I #
edge $-1 $150 $140 $139 $221 forward #
point $-1 -762 -609.60000000000002 609.59999999999991 #
coedge $-1 $143 $146 $156 $200 1 $50 $-1 #
coedge $-1 $158 $155 $143 $188 0 $121 $-1 #
edge $-1 $190 $202 $187 $222 reversed #
coedge $-1 $161 $144 $155 $198 0 $153 $-1 #
vertex $-1 $145 $223 #
ellipse-curve $-1 -762 2133.6000000000004 1524 0 -1 0 0 0 -914.40000000000009 1 I I #
ellipse-curve $-1 -762 3048.0000000000005 1524 0 1 0 -914.40000000000009 0 0 1 I I #
point $-1 -761.99999999999989 3048.0000000000005 2438.4000000000001 #
point $-1 -761.99999999999989 -609.60000000000002 2438.4000000000001 #
face $-1 $220 $178 $2 $-1 $224 forward single #
plane-surface $-1 0 2438.4000000000001 1524 1 -1.2520969970961216e-016 0 1.2520969970961215e-013 1000 0 forward_v I I I I #
coedge $-1 $155 $158 $160 $205 1 $121 $-1 #
edge $-1 $190 $206 $189 $225 forward #
coedge $-1 $201 $156 $170 $213 0 $96 $-1 #
edge $-1 $202 $217 $156 $226 reversed #
coedge $-1 $157 $199 $164 $209 0 $96 $-1 #
vertex $-1 $200 $227 #
vertex $-1 $159 $228 #
straight-curve $-1 -1524 2438.4000000000005 1524 0 0 -1000 I I #
edge $-1 $206 $203 $160 $229 forward #
vertex $-1 $198 $230 #
straight-curve $-1 -3.8163916471489756e-014 2133.6000000000004 0 -1000 0 0 I I #
straight-curve $-1 -1524 2438.4000000000001 0 1000 0 0 I I #
edge $-1 $214 $167 $201 $231 forward #
edge $-1 $174 $168 $165 $232 forward #
point $-1 0 2438.4000000000001 0 #
point $-1 -3.8163916471489756e-014 2133.6000000000004 0 #
edge $-1 $217 $214 $199 $233 reversed #
vertex $-1 $213 $234 #
straight-curve $-1 1.1102230246251565e-013 3048.0000000000005 1018.5463819498373 0 -999.99999999999989 0 I I #
point $-1 0 2133.6000000000004 1018.5463819498368 #
vertex $-1 $177 $235 #
straight-curve $-1 -762 3048.0000000000005 609.59999999999991 0 -999.99999999999989 0 I I #
point $-1 -762 3048.0000000000005 609.59999999999991 #
face $-1 $85 $182 $2 $-1 $236 reversed single #
ellipse-curve $-1 -762 -609.60000000000002 1524 0 1 0 -914.40000000000009 0 0 1 I I #
straight-curve $-1 -1524 3048.0000000000005 1018.546381949837 0 -999.99999999999989 0 I I #
point $-1 -1524 2133.6000000000004 1018.546381949837 #
plane-surface $-1 -762 3048.0000000000005 1524 0 1 0 0 0 1000 forward_v I I I I #
straight-curve $-1 -1524 2133.6000000000004 1524 0 0 -1000 I I #
ellipse-curve $-1 -762 2438.4000000000001 1524 0 1 0 0 0 914.40000000000009 1 I I #
point $-1 -1524 2438.4000000000001 1018.5463819498368 #
point $-1 -1524 2438.4000000000005 0 #
straight-curve $-1 -1524 2133.6000000000004 0 0 1000 0 I I #
point $-1 -1524 2133.6000000000004 0 #
straight-curve $-1 0 2438.4000000000001 1524 0 0 -1000 I I #
straight-curve $-1 -3.8163916471489756e-014 2133.6000000000004 1524 0 0 -1000 I I #
ellipse-curve $-1 -762 2438.4000000000001 1524 0 1 0 0 0 914.40000000000009 1 I I #
point $-1 0 2438.4000000000001 1018.5463819498368 #
point $-1 -762 2438.4000000000001 609.59999999999991 #
plane-surface $-1 -762 -609.60000000000002 1524 0 1 0 0 0 1000 forward_v I I I I #
End-of-ACIS-data